<svg id="Calque_1" data-name="Calque 1" xmlns="http://www.w3.org/2000/svg" viewBox="0 0 384 460"><rect width="384" height="460" fill="none"/><path d="M175.3,249.333l-157.5,90.934a15.43,15.43,0,0,0,.145,26.808L175.6,455.839a32.35,32.35,0,0,0,31.743,0l157.663-88.764a15.43,15.43,0,0,0,.145-26.808l-157.5-90.934A32.354,32.354,0,0,0,175.3,249.333Z" fill="#c4dffa" opacity="0.37"/><path d="M176.35,221.289,11.134,295.816v15.036A17.93,17.93,0,0,0,20.2,326.439l156.456,89.006a32.352,32.352,0,0,0,31.744,0l156-87.91a17.934,17.934,0,0,0,9.129-15.624V299.038L208.7,221.289A32.354,32.354,0,0,0,176.35,221.289Z" fill="#c4dffa"/><path d="M176.35,191.364,18.848,282.3a15.429,15.429,0,0,0,.146,26.808L176.655,397.87a32.352,32.352,0,0,0,31.744,0l157.662-88.764a15.43,15.43,0,0,0,.145-26.808L208.7,191.364A32.354,32.354,0,0,0,176.35,191.364Z" fill="#f5f9fc"/><path d="M189.173,344.708l-22.742,8.455a7.947,7.947,0,0,1-6.371.893l-2.731.431c-1.9-1.131-3.65-3.139-1.732-4.245l24.332-14.03v-8.443l-10.585,6.1-22.157,12.894a9.817,9.817,0,0,0-2.378,1.89l-2.527-4.876.046,7.672a9.875,9.875,0,0,0,.009,1.975h0a9.609,9.609,0,0,0,4.846,7.42h0a29.1,29.1,0,0,0,28.958-.043l22.873-13.165V339.2Z" fill="#c4dffa"/><path d="M170.386,322.26l-23.2,13.25a9.729,9.729,0,0,0,0,16.895h0a29.1,29.1,0,0,0,28.958-.042L199.014,339.2l-9.841-5.746L166.5,346.816a10.738,10.738,0,0,1-10.938-.017h0a2.9,2.9,0,0,1,.032-5l24.332-14.03Z" fill="#f8faff"/><polygon points="205.291 341.857 167.258 364.395 176.663 369.984 214.828 347.95 205.291 341.857" fill="#f8faff"/><polygon points="167.258 364.395 167.258 372.6 176.663 378.189 176.663 369.984 167.258 364.395" fill="#c4dffa"/><polygon points="176.663 378.189 214.828 356.154 214.828 347.95 176.663 369.984 176.663 378.189" fill="#c4dffa"/><polygon points="346.094 147.999 346.094 181.203 343.267 182.758 208.781 101.923 206.548 71.404 209.375 69.85 346.094 147.999" fill="#08bf08"/><polygon points="343.267 149.554 343.267 182.758 205.955 103.478 206.548 71.404 343.267 149.554" fill="lime"/><path d="M216.532,94.854l.2,5.816-2.192-1.179-.523-14.881,2.191,1.179.187,5.3a1.749,1.749,0,0,1,2.179-.185,5.429,5.429,0,0,1,2.124,2.323,8.277,8.277,0,0,1,.961,3.665l.23,6.558-2.191-1.179-.207-5.9q-.088-2.487-1.418-3.2a.938.938,0,0,0-1.124.035A2.052,2.052,0,0,0,216.532,94.854Z" fill="#fff"/><path d="M226.194,97.3l.17,4.833a2.567,2.567,0,0,0,.268,1.1,1.472,1.472,0,0,0,.567.65.709.709,0,0,0,1.011-.2l.893,2.545a1.824,1.824,0,0,1-2.11.125,5.067,5.067,0,0,1-1.951-2.053,6.906,6.906,0,0,1-.88-3.208l-.175-4.974-.92-.5-.076-2.166.92.5-.113-3.228L226,91.9l.114,3.228,1.9,1.022.076,2.166Z" fill="#fff"/><path d="M232.623,100.756l.17,4.833a2.562,2.562,0,0,0,.267,1.1,1.474,1.474,0,0,0,.568.65.709.709,0,0,0,1.011-.2l.892,2.546a1.824,1.824,0,0,1-2.11.124,5.068,5.068,0,0,1-1.95-2.052,6.913,6.913,0,0,1-.88-3.209l-.175-4.973-.921-.5-.076-2.166.921.5-.113-3.229,2.206,1.187.114,3.229,1.9,1.022.076,2.166Z" fill="#fff"/><path d="M240.927,102.921a6.638,6.638,0,0,1,2.5,2.891,10.44,10.44,0,0,1,1.213,4.539,4.5,4.5,0,0,1-.933,3.413,1.889,1.889,0,0,1-2.457.252,5.738,5.738,0,0,1-2.372-2.83l.188,5.315-2.193-1.179-.516-14.681,2.192,1.179.043,1.2A1.9,1.9,0,0,1,240.927,102.921Zm-2.214,4.288a5.808,5.808,0,0,0,.609,2.433,3.364,3.364,0,0,0,1.322,1.528,1.013,1.013,0,0,0,1.3-.117,2.377,2.377,0,0,0,.5-1.83,6.01,6.01,0,0,0-.632-2.484,3.488,3.488,0,0,0-1.361-1.6.933.933,0,0,0-1.277.17A2.739,2.739,0,0,0,238.713,107.209Z" fill="#fff"/><path d="M252.2,116.451q.057,1.593-.764,2.1a2.1,2.1,0,0,1-2.136-.2,8.424,8.424,0,0,1-1.842-1.413,11.946,11.946,0,0,1-1.754-2.194l.9-1.366a7.748,7.748,0,0,0,2.661,2.711.817.817,0,0,0,.664.13c.16-.064.236-.224.227-.478a1.735,1.735,0,0,0-.368-.886,8.05,8.05,0,0,0-1.015-1.137q-.66-.63-1.01-1.015a12.381,12.381,0,0,1-.8-1,4.8,4.8,0,0,1-.971-2.736,1.969,1.969,0,0,1,.791-1.965,2.311,2.311,0,0,1,2.232.275,8.88,8.88,0,0,1,2.821,2.777l-.747,1.566a6.485,6.485,0,0,0-2.072-2.059q-1.016-.547-.989.216a1.422,1.422,0,0,0,.345.835,12.758,12.758,0,0,0,1.086,1.135q.757.722,1.077,1.061a11.677,11.677,0,0,1,.771.936A4.683,4.683,0,0,1,252.2,116.451Z" fill="#fff"/><path d="M254.137,120.445a3.229,3.229,0,0,1-.417-1.453,1.283,1.283,0,0,1,.328-1.054.734.734,0,0,1,.9-.02,2.4,2.4,0,0,1,.931,1,3.236,3.236,0,0,1,.417,1.454,1.277,1.277,0,0,1-.329,1.053.733.733,0,0,1-.895.02A2.4,2.4,0,0,1,254.137,120.445Z" fill="#fff"/><path d="M255.425,114.382a3.22,3.22,0,0,1-.417-1.454,1.277,1.277,0,0,1,.328-1.053.734.734,0,0,1,.9-.02,2.406,2.406,0,0,1,.931,1,3.235,3.235,0,0,1,.416,1.454,1.277,1.277,0,0,1-.328,1.053.733.733,0,0,1-.895.021A2.4,2.4,0,0,1,255.425,114.382Z" fill="#fff"/><path d="M262.748,110.221l2.076,1.116-5.49,15.089-2.061-1.109Z" fill="#fff"/><path d="M267.266,112.94l2.076,1.116-5.49,15.09-2.061-1.109Z" fill="#fff"/><g style="isolation:isolate"><path d="M319.368,131.608c-.21.089-.419.177-.626.252-.179.064-.355.12-.531.173-.087.026-.176.057-.262.081-.26.072-.517.134-.768.184l-.019,0h0c-.355.07-.7.114-1.033.148-.1.009-.192.018-.286.024-.211.016-.417.025-.618.029-.085,0-.172,0-.256,0-.214,0-.422-.009-.623-.021-.045,0-.094,0-.138-.006-.239-.017-.468-.041-.685-.07l-.176-.028c-.15-.022-.3-.046-.435-.072-.073-.013-.139-.028-.208-.043-.115-.024-.229-.048-.333-.074l-.185-.046-.282-.078-.146-.044c-.094-.029-.18-.057-.255-.083l-.077-.026c-.108-.039-.194-.071-.251-.094l-.06-.025-.013,0-9.681,5.625.065.027.011,0c.056.023.136.053.247.093l.02.007.061.02c.076.026.158.053.253.083l.063.02c.025.008.057.016.083.023.088.026.181.051.282.078.038.01.068.02.109.03l.076.017c.105.026.217.05.333.074.052.011.1.023.151.033l.056.01c.138.026.285.049.435.072.053.007.1.017.152.025l.025,0c.217.029.445.053.683.07l.023,0c.039,0,.082,0,.122,0,.2.012.4.019.618.02.031,0,.058,0,.089,0,.053,0,.112-.006.167-.007.2,0,.407-.013.618-.029.057,0,.11,0,.167-.008.038,0,.079-.013.118-.017.334-.033.675-.077,1.029-.147h.013c.256-.051.517-.114.781-.187.087-.024.176-.055.264-.082.145-.044.288-.083.434-.134.032-.011.064-.027.095-.039.208-.074.418-.162.628-.253.1-.044.207-.082.312-.131.317-.147.635-.31.956-.5l9.68-5.626c-.32.187-.639.35-.956.5C319.576,131.524,319.473,131.563,319.368,131.608Z" fill="#9dcbf7"/><polygon points="339.498 134.766 325.306 126.573 315.626 132.198 329.818 140.392 344.009 148.585 353.689 142.96 339.498 134.766" fill="#c4dffa"/><path d="M367.57,164.35c-.1-.082-.237-.189-.395-.322s-.316-.271-.5-.441-.373-.341-.585-.545-.41-.4-.635-.627q-.314-.319-.659-.691-.325-.351-.676-.749t-.7-.818q-.363-.435-.743-.918-.415-.528-.85-1.114-.618-.834-1.267-1.793c-.643-.952-1.3-2-1.974-3.141q-.621-1.064-1.25-2.241-.425-.8-.85-1.653-.365-.73-.726-1.5-.348-.744-.694-1.526t-.683-1.593q-.345-.831-.684-1.7l-.006-.015-9.68,5.625.006.015q.339.872.684,1.7t.683,1.594q.345.781.694,1.525.361.773.725,1.5.426.855.851,1.654.627,1.177,1.25,2.24c.67,1.145,1.331,2.19,1.973,3.141q.649.96,1.268,1.794.434.586.85,1.113.379.483.743.918t.7.818q.349.4.676.749.345.372.659.691.338.344.634.628c.212.2.408.384.586.545s.358.316.5.44.291.241.394.323c.132.1.218.167.252.192l9.68-5.626C367.787,164.517,367.7,164.454,367.57,164.35Z" fill="#eaf2fa"/><path d="M358.141,170.168c5.607,38.378-15.173,46.087-28.54,46.62-13.321-15.941-33.989-47.581-28.183-79.369.4.168,8.05,3.361,14.208-5.221l14.192,8.194,14.191,8.193C350.1,164.238,357.739,169.871,358.141,170.168Z" fill="#75b4f0"/><path d="M368.755,177.068c0-.054,0-.106,0-.16,0-.159-.006-.328-.006-.488,0-.522-.007-1.049-.02-1.586,0-.12,0-.233,0-.353,0-.149-.016-.307-.021-.457q-.029-.774-.074-1.57c-.01-.173-.013-.337-.024-.511-.006-.1-.017-.2-.024-.3q-.066-.974-.158-1.98c-.012-.134-.019-.262-.032-.4,0-.026-.006-.054-.009-.081-.082-.847-.18-1.714-.29-2.595-.008-.063-.013-.123-.021-.187q-.115-.919-.254-1.862l-9.68,5.626c.1.694.191,1.374.275,2.049q.165,1.321.29,2.595c.016.162.026.318.041.479q.091,1.005.158,1.98c.018.272.032.54.048.808q.045.8.073,1.571c.01.271.02.542.026.809.014.539.02,1.069.021,1.592,0,.213,0,.43,0,.641,0,.722-.021,1.433-.049,2.127,0,.081-.01.16-.014.241q-.042.939-.114,1.843c-.017.217-.037.429-.056.643q-.065.717-.147,1.414c-.024.209-.049.418-.076.624-.086.658-.18,1.305-.288,1.933,0,.023-.007.047-.011.07-.116.665-.249,1.308-.39,1.94-.035.16-.072.316-.109.473-.166.706-.342,1.4-.537,2.062l0,.018c-.226.766-.474,1.5-.736,2.213-.031.083-.059.169-.09.251q-.483,1.281-1.039,2.448c-.017.037-.033.075-.05.112-.237.492-.484.967-.739,1.43-.066.122-.135.24-.2.359q-.317.555-.647,1.082c-.062.1-.122.2-.185.3q-.407.63-.836,1.221c-.06.081-.122.159-.182.24q-.355.477-.725.929c-.085.1-.169.207-.255.309-.3.349-.594.69-.9,1.017l-.034.038c-.319.338-.646.66-.976.974-.092.088-.185.173-.278.259q-.4.367-.805.712c-.078.066-.155.135-.234.2q-.51.422-1.034.811c-.077.058-.156.113-.234.169q-.427.31-.861.6c-.1.067-.2.135-.3.2-.361.233-.724.461-1.091.674l9.68-5.626c.368-.213.731-.44,1.092-.674.1-.065.2-.132.3-.2q.435-.291.863-.6c.078-.056.156-.11.234-.168q.523-.39,1.034-.812c.078-.065.154-.132.231-.2q.41-.346.808-.714c.093-.086.185-.171.277-.258.33-.314.657-.637.976-.975l.034-.038c.307-.326.606-.668.9-1.017.086-.1.17-.2.254-.308q.369-.45.725-.927c.061-.082.124-.161.184-.245q.429-.588.834-1.217c.021-.031.043-.06.063-.091.043-.067.082-.141.125-.209q.33-.525.644-1.078c.068-.12.137-.239.2-.362.254-.463.5-.937.738-1.428.006-.014.014-.026.02-.04s.02-.05.031-.073q.555-1.169,1.038-2.447c.01-.026.022-.049.031-.075.022-.057.038-.12.059-.177.263-.714.511-1.447.737-2.214l0-.012v0c.195-.663.371-1.355.536-2.06.021-.086.046-.165.066-.251s.029-.153.045-.226c.14-.631.273-1.273.389-1.937l0-.012c0-.022.007-.046.01-.069.108-.625.2-1.269.288-1.924.011-.085.026-.164.037-.249.015-.122.024-.252.039-.375q.081-.695.146-1.414c.012-.139.031-.269.042-.409.006-.076.009-.157.014-.234q.072-.9.114-1.843c0-.07.01-.136.013-.206v-.035C368.735,178.5,368.75,177.79,368.755,177.068Z" fill="#c4dffa"/></g><path d="M343.289,170.632c.835,1.269.892,2.941.128,3.734v0l-15.732,16.267c-.764.794-2.059.409-2.894-.86v0l-8.581-13.01c-.84-1.288-.9-2.977-.128-3.786.774-.765,2.054-.383,2.9.863l7.092,10.792,14.327-14.862c.763-.793,2.059-.408,2.894.861Z" fill="#fff" fill-rule="evenodd"/><path d="M97.676,122.208l.868.618v30.282a11.085,11.085,0,0,1-5,8.655L67.634,176.842l-2.051-1.005a2.228,2.228,0,0,1-1.247-2V144.9a10.98,10.98,0,0,1,5.019-8.619L94.314,122.04A3.13,3.13,0,0,1,97.676,122.208Z" fill="#75b4f0"/><path d="M95.049,123.168c2.76-1.567,5.019-.252,5.019,2.922v27.627a11.086,11.086,0,0,1-5,8.655l-24.213,13.98c-2.749,1.587-5,.289-5-2.885V145.508a10.98,10.98,0,0,1,5.019-8.619Z" fill="#4c95db"/><path d="M94.558,141.217a.7.7,0,0,0-.131-.41h0l-.057-.3a1.585,1.585,0,0,0-1.559-1.3h-.869v0a.57.57,0,0,0-.207.028l.607-1.186A1.523,1.523,0,0,0,92.515,137h0a.509.509,0,0,0-.183-.28l-1.421-2.18a.9.9,0,0,0-.759-.411H87.777v.006a1.327,1.327,0,0,0-.918.79l-.846,1.652a.533.533,0,0,0-.084-.155h0a.4.4,0,0,0-.231-.145l-2.3-1.45v0a.739.739,0,0,0-.366.131l-2.816,1.85a1.9,1.9,0,0,0-.768,1.5l.087,2.067a1.61,1.61,0,0,1-.421,1.055c-.159.178-.315.362-.468.55a1.368,1.368,0,0,1-.251.24l-1.834-.556a.479.479,0,0,0-.344,0H76.2v0a1.511,1.511,0,0,0-.762.757l-1.892,3.689c-.3.586-.274,1.2.058,1.369l1.639.843c-.013.042-.212.77-.361,1.39a1.577,1.577,0,0,1-.6.912l-1.741,1.141a1.9,1.9,0,0,0-.77,1.5l.141,3.37a.852.852,0,0,0,.385.567h0a20.006,20.006,0,0,0,1.921,1.263.42.42,0,0,0,.488.156l-.592,1.152c-.3.585-.275,1.2.057,1.37l2.013,1.262h0a.429.429,0,0,0,.172.176l2.09,1.077c.331.171.844-.164,1.144-.75l.846-1.648a.655.655,0,0,0,.3.3v0l2.058,1.376a.545.545,0,0,0,.626-.059l2.816-1.845a1.892,1.892,0,0,0,.769-1.5l-.084-2.069a1.616,1.616,0,0,1,.422-1.055q.239-.267.468-.549c.255-.312.562-.46.774-.35l1.281.663c.332.172.844-.164,1.145-.749l1.895-3.688c.3-.585.276-1.2-.056-1.37l-1.3-.67c-.2-.1-.274-.419-.176-.792.063-.239.134-.517.2-.775a1.574,1.574,0,0,1,.6-.911l1.742-1.14a1.893,1.893,0,0,0,.771-1.5Zm-13.629,7.87c.986-2.564,3.061-4.653,4.826-4.872l.106-.009a6.544,6.544,0,0,1-.322,4.546c-.985,2.563-3.061,4.652-4.825,4.871-.036,0-.071.006-.106.009A6.546,6.546,0,0,1,80.929,149.087Z" fill="#144b82" opacity="0.3"/><path d="M75.53,152.837l.14,3.369a.859.859,0,0,0,.385.568h0a20.235,20.235,0,0,0,1.92,1.263l.266-2.524.005,0c.287-.188.542-.127.655.128.069.153.143.3.222.442a1.131,1.131,0,0,1-.09,1l-1.161,2.263c-.3.586-.276,1.2.056,1.37l2.013,1.263c.059.03.2-.146.269-.146v.005h2.4v-1.871h-.895l.621-1.21a1.136,1.136,0,0,1,.732-.653c.164-.021.356-.048.536-.079.26-.045.439.139.452.467l.086,2.085a.6.6,0,0,0,.353.558v0l2.058,1.376.131-2.608,1.123-.736a1.9,1.9,0,0,0,.77-1.5l-.085-2.071a1.616,1.616,0,0,1,.422-1.055c.159-.177.315-.361.468-.549.255-.312.562-.46.774-.35l4.321-3.773c.3-.586.276-1.2-.056-1.371l-1.294-.67c-.2-.1-.275-.418-.177-.792.063-.239.134-.516.2-.775a1.575,1.575,0,0,1,.6-.911l1.742-1.139a1.9,1.9,0,0,0,.771-1.5l-.054-1.355,1.975-.992-.056-.3a1.586,1.586,0,0,0-1.559-1.3H95.7v0a.689.689,0,0,0-.42.13l-1.729,1.131c-.287.187-.542.126-.655-.129q-.107-.243-.231-.465a1.125,1.125,0,0,1,.088-1l1.159-2.265c.3-.586,2.361.388,2.361.388l-1.6-2.46a.9.9,0,0,0-.759-.412H91.533v.006a1.331,1.331,0,0,0-.918.791l-1.171,2.287a1.14,1.14,0,0,1-.732.654c-.164.021-.356.049-.537.08-.26.046-.439-.138-.453-.466l-.008-.172,1.73-.1.242-.79-2.537-1.595v0a.751.751,0,0,0-.366.132l-2.816,1.85a1.9,1.9,0,0,0-.768,1.5l.088,2.068A1.616,1.616,0,0,1,82.865,141c-.158.179-.314.362-.468.551a1.4,1.4,0,0,1-.25.24l-1.834-.557a.493.493,0,0,0-.345,0h-.009v0a1.513,1.513,0,0,0-.763.757l-1.891,3.69c-.3.585-.275,1.2.057,1.369l1.64.842c-.014.043-.213.77-.362,1.39a1.574,1.574,0,0,1-.6.912l-1.74,1.142A1.9,1.9,0,0,0,75.53,152.837Zm6.968-5.623c.985-2.564,3.06-4.652,4.825-4.871,2.322-.289,3.3,2.535,1.973,5.975-.986,2.564-3.061,4.653-4.826,4.872C82.148,153.478,81.175,150.654,82.5,147.214Z" fill="#c4dffa"/><path d="M80.829,150.723a1.576,1.576,0,0,1-.6.911l-1.742,1.143a1.893,1.893,0,0,0-.769,1.5l.14,3.369c.022.535.4.731.85.438l1.728-1.134c.287-.188.542-.128.656.127q.1.231.221.442a1.133,1.133,0,0,1-.089,1l-1.162,2.264c-.3.585-.275,1.2.056,1.369l2.09,1.078c.332.171.844-.165,1.144-.75l1.174-2.287a1.138,1.138,0,0,1,.732-.653c.164-.02.356-.047.537-.078.259-.045.438.138.452.467l.085,2.085c.022.535.4.731.849.438L90,160.609a1.893,1.893,0,0,0,.77-1.5l-.085-2.069a1.608,1.608,0,0,1,.423-1.054q.237-.267.468-.549c.254-.312.561-.46.773-.351l1.282.664c.331.171.844-.164,1.144-.75l1.895-3.687c.3-.585.276-1.2-.056-1.37l-1.294-.67c-.2-.106-.275-.419-.176-.793.062-.238.134-.516.2-.774a1.574,1.574,0,0,1,.6-.912l1.743-1.139a1.89,1.89,0,0,0,.77-1.5l-.135-3.372c-.022-.535-.4-.732-.849-.44l-1.729,1.131c-.286.188-.541.127-.654-.129q-.108-.242-.232-.464a1.13,1.13,0,0,1,.088-1l1.16-2.264c.3-.586.273-1.2-.059-1.369l-2.092-1.071c-.333-.17-.845.166-1.145.752l-1.171,2.287a1.135,1.135,0,0,1-.732.654c-.164.021-.356.049-.537.08-.26.046-.439-.137-.453-.465l-.088-2.083c-.023-.534-.4-.73-.85-.436l-2.816,1.85a1.9,1.9,0,0,0-.769,1.5l.088,2.067a1.615,1.615,0,0,1-.421,1.055q-.239.267-.468.55c-.255.312-.562.461-.774.352l-1.283-.66c-.332-.17-.845.166-1.145.752l-1.891,3.689c-.3.586-.274,1.2.057,1.369l1.64.843C81.177,149.375,80.977,150.1,80.829,150.723Zm5.83,3.906c-2.323.288-3.3-2.535-1.973-5.976.985-2.563,3.061-4.652,4.825-4.871,2.322-.288,3.3,2.535,1.973,5.976C90.5,152.321,88.423,154.41,86.659,154.629Z" fill="#fff"/><polygon points="185.402 258.912 226.274 235.316 185.402 211.719 144.531 235.316 185.402 258.912" fill="#c4dffa" opacity="0.37"/><polygon points="148.639 184.155 148.639 226.606 185.402 247.831 185.402 205.381 148.639 184.155" fill="#eaf2fa"/><polygon points="222.165 184.155 222.166 226.606 185.402 247.831 185.402 205.381 222.165 184.155" fill="#c4dffa"/><polygon points="185.402 205.381 222.166 184.155 185.402 162.93 148.639 184.155 185.402 205.381" fill="#fff"/><polygon points="195.435 283.315 220.691 268.734 195.435 254.152 170.179 268.734 195.435 283.315" fill="#c4dffa" opacity="0.37"/><polygon points="172.717 237.12 172.717 263.352 195.435 276.468 195.435 250.236 172.717 237.12" fill="#eaf2fa"/><polygon points="218.152 237.12 218.152 263.352 195.435 276.468 195.435 250.236 218.152 237.12" fill="#c4dffa"/><polygon points="195.435 250.236 218.152 237.12 195.435 224.004 172.717 237.12 195.435 250.236" fill="#fff"/><polygon points="136.326 279.891 163.955 263.939 136.326 247.988 108.696 263.939 136.326 279.891" fill="#c4dffa" opacity="0.37"/><polygon points="111.474 229.355 111.473 258.052 136.326 272.4 136.326 243.703 111.474 229.355" fill="#eaf2fa"/><polygon points="161.178 229.355 161.178 258.052 136.326 272.4 136.326 243.703 161.178 229.355" fill="#c4dffa"/><polygon points="136.326 243.703 161.178 229.355 136.326 215.007 111.474 229.355 136.326 243.703" fill="#fff"/><polygon points="136.326 240.477 154.828 229.795 136.326 219.113 117.824 229.795 136.326 240.477" fill="#c4dffa" opacity="0.11"/><polygon points="119.684 206.636 119.684 225.852 136.326 235.461 136.326 216.244 119.684 206.636" fill="#eaf2fa"/><polygon points="152.968 206.636 152.968 225.852 136.326 235.461 136.326 216.244 152.968 206.636" fill="#c4dffa"/><polygon points="136.326 216.244 152.968 206.636 136.326 197.028 119.684 206.636 136.326 216.244" fill="#fff"/><path d="M84.232,289.809l-17.813,6.622a6.227,6.227,0,0,1-4.991.7l-2.139.337c-1.491-.885-2.859-2.458-1.356-3.325l19.058-10.989v-6.612l-8.291,4.78-17.355,10.1a7.671,7.671,0,0,0-1.862,1.481L47.5,289.083l.036,6.009a7.764,7.764,0,0,0,.006,1.547h0a7.531,7.531,0,0,0,3.8,5.812h0a22.791,22.791,0,0,0,22.682-.034L91.94,292.105v-6.613Z" fill="#c4dffa"/><path d="M69.516,272.226,51.345,282.6a7.622,7.622,0,0,0,0,13.234h0a22.793,22.793,0,0,0,22.682-.033L91.94,285.492l-7.708-4.5L66.475,291.46a8.41,8.41,0,0,1-8.567-.014h0a2.267,2.267,0,0,1,.025-3.915l19.058-10.989Z" fill="#f8faff"/><polygon points="126.815 312.765 126.815 306.667 115.969 306.169 101.904 308.504 103.529 297.883 103.529 291.785 95.104 292.997 92.697 309.159 67.163 305.117 67.163 311.215 78.107 317.774 91.466 316.709 90.27 318.641 90.27 324.739 99.788 331.232 100.75 315.969 126.815 312.765" fill="#c4dffa"/><polygon points="126.815 306.667 115.969 300.071 101.904 302.406 103.529 291.785 95.104 286.898 92.697 303.06 67.163 305.117 78.107 311.676 91.466 310.611 90.27 318.641 99.788 325.134 100.75 309.87 126.815 306.667" fill="#f8faff"/><path d="M72.932,163.885l.869.618v30.281a11.088,11.088,0,0,1-5,8.656L42.89,218.519l-2.05-1a2.228,2.228,0,0,1-1.247-2V186.575a10.98,10.98,0,0,1,5.018-8.619l24.96-14.239A3.126,3.126,0,0,1,72.932,163.885Z" fill="#05e005"/><path d="M70.306,164.844c2.76-1.566,5.018-.251,5.018,2.922v27.627a11.086,11.086,0,0,1-5,8.656l-24.214,13.98c-2.748,1.587-5,.288-5-2.885v-27.96a10.982,10.982,0,0,1,5.018-8.619Z" fill="lime"/><g opacity="0.32"><path d="M62.886,180.645l1.031-.606q2.808-1.653,2.81,1.119l0,3.9q0,.815.431.561l.862-.507v2.366l-.862.507a1.118,1.118,0,0,0-.43,1.048l0,3.975a4.981,4.981,0,0,1-2.808,4.426l-1.03.606v-2.366q1.218-.717,1.217-1.356l0-4.226a3,3,0,0,1,.693-1.9q-.693-.077-.694-1.1l0-4.053q0-.756-.824-.271l-.393.25Z" fill="#144b82"/><path d="M54.908,202.758l-1.03.607q-2.809,1.653-2.81-1.12l0-3.9q0-.813-.432-.56l-.861.507v-2.365l.861-.507a1.119,1.119,0,0,0,.431-1.049l0-3.975a4.978,4.978,0,0,1,2.807-4.425l1.03-.607,0,2.365q-1.218.717-1.218,1.357l0,4.227a2.987,2.987,0,0,1-.692,1.9q.693.076.694,1.1l0,4.052q0,.756.825.272l.393-.252Z" fill="#144b82"/></g><path d="M65.6,179.968l1.03-.607q2.808-1.653,2.81,1.12l0,3.9q0,.815.431.561l.862-.507V186.8l-.862.507a1.118,1.118,0,0,0-.43,1.048l0,3.974c0,1.849-.611,4.608-2.483,5.71L65.6,197.36l0-2.366q1.218-.717,1.217-1.356l0-4.226a3,3,0,0,1,.692-1.9q-.692-.076-.694-1.1l.135-3.4-1.354-.677Z" fill="#dde2ff"/><path d="M57.617,202.081l-1.36,1.9s-2.48-.566-2.481-2.414c0,0,.348-3.444.059-3.274l-1.354-.677v-2.365l.861-.507a1.119,1.119,0,0,0,.431-1.049l0-3.975a4.98,4.98,0,0,1,2.808-4.426l1.03-.606,1.354.677-1.353,1.688q-1.218.717-1.217,1.357l0,4.227a2.994,2.994,0,0,1-.692,1.9q.693.078.693,1.1l0,4.052q0,.756.825.271l.393-.251Z" fill="#dde2ff"/><polygon points="72.084 185.109 70.052 185.109 70.052 186.495 71.717 186.156 72.084 185.109" fill="#ebe9ec"/><path d="M66.949,180.645l1.03-.606q2.808-1.653,2.81,1.119l0,3.9q0,.815.431.561l.862-.507v2.366l-.862.507a1.118,1.118,0,0,0-.43,1.048l0,3.975a4.982,4.982,0,0,1-2.807,4.426l-1.03.606,0-2.366q1.218-.717,1.217-1.356l0-4.226a3,3,0,0,1,.693-1.9q-.693-.077-.7-1.1l0-4.053q0-.756-.824-.271l-.393.25Z" fill="#fff"/><path d="M58.971,202.758l-1.031.607q-2.808,1.653-2.81-1.12l0-3.9q0-.813-.431-.56l-.862.507v-2.365l.861-.507a1.117,1.117,0,0,0,.431-1.049l0-3.975a4.979,4.979,0,0,1,2.808-4.425l1.03-.607v2.365q-1.217.717-1.217,1.357l0,4.227a2.993,2.993,0,0,1-.692,1.9q.693.076.693,1.1l0,4.052q0,.756.825.272l.394-.252Z" fill="#fff"/><ellipse cx="185.167" cy="183.995" rx="13.671" ry="7.893" fill="#fff"/><path d="M175.5,179.212c5.317-3.069,14.016-3.069,19.333,0,2.483,1.434,3.806,3.294,3.969,5.182.187-2.154-1.136-4.344-3.969-5.98-5.317-3.07-14.016-3.07-19.333,0-2.833,1.636-4.156,3.826-3.969,5.98C171.694,182.506,173.017,180.646,175.5,179.212Z" fill="#9dcbf7"/><path d="M176.264,187.378a11.474,11.474,0,0,1-1.641-6.709V176.6h21.343v3.652a10.982,10.982,0,0,1-2.181,7.058C192.5,188.95,177.827,189.568,176.264,187.378Z" fill="#c4dffa"/><path d="M176.264,187.378a11.474,11.474,0,0,1-1.641-6.709V176.6h21.343v3.652a14.043,14.043,0,0,1-2.1,7.273C193.758,187.7,177.827,189.568,176.264,187.378Z" fill="#c4dffa"/><path d="M192.8,172.265a16.71,16.71,0,0,0-15.068,0c-4.143,2.392-4.143,6.307,0,8.7a16.717,16.717,0,0,0,15.068,0C196.943,178.572,196.943,174.657,192.8,172.265Z" fill="#26538e"/><path d="M185.3,136.561A19.5,19.5,0,0,0,174.631,172.4v4.412h0c.06,1.516,1.184,3.049,3.176,4.2,4.109,2.373,10.91,2.344,15.019-.028,1.991-1.15,3.008-2.654,3.069-4.17h.069V172.4A19.5,19.5,0,0,0,185.3,136.561Z" fill="lime" opacity="0.8"/><path d="M174.388,158.2a12.758,12.758,0,0,1,12.758-12.758c6.522,0,6.018-5.439-2.3-5.439A15.054,15.054,0,0,0,169.8,155.057C169.8,160.332,174.388,162.669,174.388,158.2Z" fill="#fff"/><path d="M192.826,182.684c-4.109,2.372-10.91,2.4-15.019.028-1.992-1.15-3.116-2.683-3.176-4.2v1.462c.06,1.516,1.184,3.049,3.176,4.2,4.109,2.372,10.91,2.344,15.019-.029,1.991-1.15,3.008-2.654,3.069-4.17h.069v-1.462H195.9C195.834,180.029,194.817,181.534,192.826,182.684Z" fill="#4c95db"/><path d="M192.81,186.755c-4.173,2.41-11.081,2.438-15.254.029a7.282,7.282,0,0,1-2.605-2.383,14.837,14.837,0,0,0,1.1,2.775,8.733,8.733,0,0,0,1.508,1.092c4.173,2.41,11.081,2.381,15.254-.028a8.688,8.688,0,0,0,1.249-.873,14.791,14.791,0,0,0,1.323-3.033A6.765,6.765,0,0,1,192.81,186.755Z" fill="#4c95db"/><path d="M185.228,134.944h-.007a1.59,1.59,0,0,1-1.582-1.6l.059-12.188a1.589,1.589,0,0,1,1.589-1.582h.008a1.59,1.59,0,0,1,1.582,1.6l-.059,12.188A1.589,1.589,0,0,1,185.228,134.944Zm13.027,2.31,6.155-10.519a1.59,1.59,0,0,0-2.744-1.606l-6.156,10.52a1.59,1.59,0,0,0,2.745,1.6Zm7.947,9.1,10.6-6.021a1.59,1.59,0,0,0-1.571-2.765l-10.6,6.021a1.59,1.59,0,1,0,1.571,2.765Zm-39.586-.722a1.591,1.591,0,0,0-.548-2.181l-10.461-6.257a1.591,1.591,0,0,0-1.633,2.73l10.461,6.256a1.589,1.589,0,0,0,2.181-.548Zm8.007-7.878a1.589,1.589,0,0,0,.618-2.162l-5.92-10.655a1.59,1.59,0,1,0-2.779,1.544l5.92,10.656a1.589,1.589,0,0,0,2.161.617Z" fill="lime" opacity="0.8"/><polygon points="320.298 277.067 274.611 250.417 274.611 317.294 320.298 292.626 320.298 277.067" fill="#abc4e4"/><polygon points="274.798 250.532 273.295 251.182 318.982 277.56 320.298 276.801 274.798 250.532" fill="#eff4fe"/><polygon points="228.96 277.067 274.647 250.417 274.647 317.294 228.96 292.626 228.96 277.067" fill="#9dcbf7"/><polygon points="274.611 250.417 275.909 251.205 230.258 277.537 228.942 276.778 274.611 250.417" fill="#eff4fe"/><path d="M280.261,254.326l-4.764-2.771a1.965,1.965,0,0,0-.239-.14h0a1.813,1.813,0,0,0-1.713.064l-19.2,11.086a4.448,4.448,0,0,0-2.224,3.852v22.171a1.814,1.814,0,0,0,.822,1.529h0a1.866,1.866,0,0,0,.184.106l4.76,2.757.417-4.787,15.768-9.1a4.449,4.449,0,0,0,2.224-3.853V258.951c1.186.582,2.156,1.033,2.156,1.033Z" fill="#c4dffa"/><path d="M259.046,265.293l19.2-11.085A1.834,1.834,0,0,1,281,255.8v22.171a4.448,4.448,0,0,1-2.224,3.852l-19.2,11.086a1.834,1.834,0,0,1-2.751-1.588V269.146A4.451,4.451,0,0,1,259.046,265.293Z" fill="#eaf2fa"/><path d="M287.971,254.2l4.763-2.772a1.848,1.848,0,0,1,.24-.139l0,0h0a1.813,1.813,0,0,1,1.713.063l19.2,11.086a4.449,4.449,0,0,1,2.224,3.852v22.172a1.813,1.813,0,0,1-.822,1.529h0a1.851,1.851,0,0,1-.183.106l-4.76,2.756-.417-4.786-15.768-9.1a4.446,4.446,0,0,1-2.224-3.852V258.829c-1.187.581-2.157,1.032-2.157,1.032Z" fill="#75b4f0"/><path d="M309.185,265.171l-19.2-11.086a1.833,1.833,0,0,0-2.75,1.588v22.172a4.449,4.449,0,0,0,2.224,3.852l19.2,11.086a1.834,1.834,0,0,0,2.751-1.588V269.023A4.448,4.448,0,0,0,309.185,265.171Z" fill="#4c95db"/><path d="M278.3,248.7l4.764-2.771a1.837,1.837,0,0,1,.239-.139l0,0h0a1.811,1.811,0,0,1,1.712.064l19.2,11.086a4.447,4.447,0,0,1,2.225,3.852v22.171a1.816,1.816,0,0,1-.822,1.53h0a1.875,1.875,0,0,1-.184.107l-4.76,2.756-.417-4.787-15.768-9.1a4.449,4.449,0,0,1-2.224-3.853V253.326c-1.187.582-2.156,1.033-2.156,1.033Z" fill="#05e005"/><path d="M299.51,259.669l-19.2-11.086a1.834,1.834,0,0,0-2.751,1.588v22.171a4.449,4.449,0,0,0,2.224,3.853l19.2,11.085a1.834,1.834,0,0,0,2.751-1.588V263.521A4.448,4.448,0,0,0,299.51,259.669Z" fill="lime"/><path d="M289.752,262.134a1.9,1.9,0,0,1-.78-1.546l.038-1.077c.02-.594.4-.866.856-.607a1.851,1.851,0,0,1,.781,1.546l-.038,1.076C290.579,262.111,290.2,262.379,289.752,262.134Z" fill="#fff"/><path d="M285.151,258.781c.334-.237.851.06,1.156.663l.543,1.075c.319.594.316,1.287-.006,1.549s-.841-.008-1.159-.6l-.045-.089L285.1,260.3C284.793,259.7,284.817,259.018,285.151,258.781Z" fill="#fff"/><path d="M283.871,263.158l.819.469a1.85,1.85,0,0,1,.781,1.546c-.021.595-.405.867-.857.608l-.818-.469a1.849,1.849,0,0,1-.781-1.546C283.036,263.171,283.419,262.9,283.871,263.158Z" fill="#fff"/><path d="M292.651,263.843l.6-.423c.346-.212.863.112,1.154.725a1.292,1.292,0,0,1-.051,1.46l-.6.423c-.321.261-.84-.008-1.158-.6s-.316-1.287.006-1.549A.548.548,0,0,1,292.651,263.843Z" fill="#fff"/><path d="M294.512,269.256l.819.469a1.848,1.848,0,0,1,.78,1.546c-.02.595-.4.867-.856.608l-.818-.469a1.849,1.849,0,0,1-.781-1.546C293.677,269.269,294.06,269,294.512,269.256Z" fill="#fff"/><path d="M290.973,274.918c-.042,1.189-.809,1.733-1.713,1.214a3.7,3.7,0,0,1-1.561-3.09l.038-1.077,3.274,1.876Z" fill="#fff"/><path d="M289.715,263.211a7.394,7.394,0,0,1,3.122,6.184,2.782,2.782,0,0,1-1.364,2.657.832.832,0,0,0-.424.712l-3.274-1.876a2.5,2.5,0,0,0-.359-1.161,7.591,7.591,0,0,1-1.127-4.085c.084-2.379,1.617-3.467,3.426-2.431Z" fill="#fff"/><path d="M269.219,265.162l4.764-2.771a1.837,1.837,0,0,1,.239-.139l0,0h0a1.811,1.811,0,0,1,1.712.064l19.2,11.086a4.446,4.446,0,0,1,2.224,3.852v22.171a1.815,1.815,0,0,1-.821,1.53h0a2,2,0,0,1-.184.107l-4.76,2.756-.417-4.787-15.768-9.1a4.449,4.449,0,0,1-2.224-3.853V269.787c-1.187.582-2.156,1.033-2.156,1.033Z" fill="#08bf08"/><path d="M290.434,276.13l-19.2-11.086a1.834,1.834,0,0,0-2.751,1.588V288.8a4.449,4.449,0,0,0,2.224,3.853l19.2,11.085a1.834,1.834,0,0,0,2.751-1.588V279.982A4.448,4.448,0,0,0,290.434,276.13Z" fill="#05e005"/><path d="M259.843,270.642l4.764-2.772a1.837,1.837,0,0,1,.239-.139l0,0h0a1.811,1.811,0,0,1,1.712.063l19.2,11.086a4.448,4.448,0,0,1,2.225,3.852V304.9a1.815,1.815,0,0,1-.822,1.529h0a1.866,1.866,0,0,1-.184.106l-4.76,2.756-.417-4.786-15.768-9.1a4.448,4.448,0,0,1-2.224-3.852V275.267c-1.187.581-2.156,1.032-2.156,1.032Z" fill="#144b82"/><path d="M281.058,281.609l-19.2-11.086a1.834,1.834,0,0,0-2.751,1.588v22.172a4.449,4.449,0,0,0,2.224,3.852l19.2,11.086a1.834,1.834,0,0,0,2.751-1.588V285.461A4.449,4.449,0,0,0,281.058,281.609Z" fill="#0c3157"/><path d="M274.933,298.153a2.313,2.313,0,0,1-.976-1.933l.19-5.405c.026-.743.5-1.083,1.071-.76a2.313,2.313,0,0,1,.976,1.933l-.19,5.4C275.978,298.136,275.5,298.476,274.933,298.153Z" fill="#fff"/><path d="M272.477,296.333l-.03-.017a2.159,2.159,0,0,1-1.241-.319l-3.7-2.119a3.029,3.029,0,0,1-1.294-2.214l-.629-5.854c-.111-1.063.408-1.734,1.16-1.5a1.315,1.315,0,0,1,.26.116l2.427,1.39.126-3.6c.043-.987.684-1.433,1.437-1a1.554,1.554,0,0,1,.656,1.3l-.021.6a6.187,6.187,0,0,0,.465,2.464l.891,2.218a6.12,6.12,0,0,1,.48,2.492l-.172,4.885C273.266,295.849,272.95,296.3,272.477,296.333Z" fill="#fff"/><polygon points="320.298 276.78 320.298 310.107 274.611 336.393 274.611 303.158 320.298 276.78" fill="#eaf2fa"/><polygon points="228.924 276.779 228.924 310.106 274.611 336.392 274.611 303.156 228.924 276.779" fill="#c4dffa"/><polygon points="230.427 276.128 228.924 276.779 274.611 303.156 275.927 302.398 230.427 276.128" fill="#fff"/><polygon points="318.795 276.174 320.298 276.824 274.647 303.156 273.331 302.398 318.795 276.174" fill="#fff"/><polygon points="255.497 313.648 254.327 314.282 253.158 312.932 251.989 299.652 253.158 299.176 255.466 300.508 255.497 313.648" fill="#9dcbf7"/><polygon points="254.327 314.282 251.989 312.932 251.989 299.652 254.297 300.985 254.327 314.282" fill="#c4dffa"/><polygon points="254.312 300.985 255.481 300.508 253.173 299.176 252.004 299.652 254.312 300.985" fill="#f5f9fc"/><path d="M248.383,296.9l-1.169.476,1.169,9.647a.579.579,0,0,1-.866.5,1.425,1.425,0,0,1-.713-1.231V296.022l-2.338-1.345-1.17.476,1.17,11.142a3.767,3.767,0,0,0,1.888,3.26,3.067,3.067,0,0,0,.538.241l-.256.15h.293a6.041,6.041,0,0,0,1.717-.338,6.148,6.148,0,0,0,.7-.306,3.06,3.06,0,0,0,1.38-2.828V298.3Z" fill="#9dcbf7"/><path d="M246.636,309.946a2.919,2.919,0,0,1-1.451-.391,3.768,3.768,0,0,1-1.889-3.26V295.153l2.339,1.345v9.8a1.423,1.423,0,0,0,.713,1.231.579.579,0,0,0,.866-.5v-9.647l2.338,1.4v8.244a2.887,2.887,0,0,1-1.454,2.524A2.923,2.923,0,0,1,246.636,309.946Z" fill="#c4dffa"/><polygon points="249.552 298.775 250.722 298.298 248.383 296.901 247.214 297.377 249.552 298.775" fill="#f5f9fc"/><polygon points="247.214 307.115 247.214 306.902 245.907 306.212 247.171 307.246 247.214 307.115" fill="#9dcbf7"/><polygon points="245.635 296.493 246.804 296.022 244.466 294.677 243.296 295.153 245.635 296.493" fill="#f5f9fc"/><path d="M114.885,239.819,118.019,238a1.371,1.371,0,0,1,.157-.092h0a1.2,1.2,0,0,1,1.127.042l12.631,7.293a2.925,2.925,0,0,1,1.463,2.534v14.585a1.194,1.194,0,0,1-.541,1.006h0a1.118,1.118,0,0,1-.121.07l-3.131,1.813-.274-3.149-10.373-5.988a2.927,2.927,0,0,1-1.463-2.534V242.861c-.78.383-1.418.68-1.418.68Z" fill="#4c95db"/><path d="M128.841,247.034l-12.631-7.293a1.207,1.207,0,0,0-1.81,1.045v14.585a2.926,2.926,0,0,0,1.464,2.534l12.63,7.292a1.207,1.207,0,0,0,1.81-1.045V249.568A2.925,2.925,0,0,0,128.841,247.034Z" fill="#75b4f0"/><path d="M122.155,248.87a1.27,1.27,0,0,1-.522-1.035l.025-.72c.014-.4.27-.58.573-.407a1.237,1.237,0,0,1,.522,1.034l-.025.721C122.708,248.854,122.455,249.033,122.155,248.87Z" fill="#fff"/><path d="M119.076,246.626c.224-.159.57.04.774.443l.363.72c.213.4.211.861,0,1.036s-.562,0-.775-.4c-.011-.02-.021-.039-.03-.06l-.364-.719C118.837,247.24,118.853,246.785,119.076,246.626Z" fill="#fff"/><path d="M118.22,249.555l.548.314a1.237,1.237,0,0,1,.522,1.034c-.014.4-.27.58-.573.407l-.548-.314a1.24,1.24,0,0,1-.522-1.035C117.661,249.564,117.918,249.381,118.22,249.555Z" fill="#fff"/><path d="M124.094,250.013l.4-.283c.232-.142.578.075.772.485a.865.865,0,0,1-.034.977l-.4.283c-.216.175-.563,0-.776-.4s-.211-.862,0-1.037Z" fill="#fff"/><path d="M125.34,253.635l.547.314a1.235,1.235,0,0,1,.523,1.034c-.014.4-.271.58-.573.407l-.548-.314a1.24,1.24,0,0,1-.522-1.035C124.781,253.643,125.037,253.461,125.34,253.635Z" fill="#fff"/><path d="M122.972,257.423c-.028.8-.542,1.159-1.147.812a2.475,2.475,0,0,1-1.044-2.067l.025-.721L123,256.7Z" fill="#fff"/><path d="M122.13,249.59a4.95,4.95,0,0,1,2.089,4.138,1.863,1.863,0,0,1-.913,1.778.555.555,0,0,0-.284.476l-2.19-1.255a1.682,1.682,0,0,0-.24-.777,5.07,5.07,0,0,1-.754-2.733c.056-1.592,1.082-2.32,2.292-1.627Z" fill="#fff"/><path d="M215.818,246.644,213,245a1.12,1.12,0,0,0-.142-.083h0a1.073,1.073,0,0,0-1.014.037l-11.375,6.568a2.634,2.634,0,0,0-1.318,2.282V266.94a1.074,1.074,0,0,0,.487.906h0a1.065,1.065,0,0,0,.109.063l2.82,1.633.247-2.835,9.341-5.393a2.636,2.636,0,0,0,1.317-2.282v-9.648c.7.344,1.278.611,1.278.611Z" fill="#05e005"/><path d="M203.25,253.141l11.375-6.568a1.086,1.086,0,0,1,1.629.941v13.135a2.636,2.636,0,0,1-1.317,2.282L203.562,269.5a1.086,1.086,0,0,1-1.629-.941V255.423A2.634,2.634,0,0,1,203.25,253.141Z" fill="lime"/><path d="M207.212,255.23a1.582,1.582,0,0,0-.668,1.324l.178,5.069c.027.763.519,1.113,1.1.78a2.374,2.374,0,0,0,1-1.985l-.178-5.069c-.018-.509-.346-.742-.733-.52Zm.577,6.251a.788.788,0,0,0,.334-.661c-.009-.255-.173-.371-.366-.26a.789.789,0,0,0-.334.661C207.432,261.476,207.6,261.592,207.789,261.481Zm1.723-1.81,1.637-3.241c.261-.521.241-1.107-.046-1.314l-.513-.364c-.289-.2-.734.054-1,.572l-.217.43Zm2.163.524-2.426,1.39,2-3.969.324-.186c.387-.222.715.011.733.52l.033.922A1.584,1.584,0,0,1,211.675,260.2Z" fill="#fff" fill-rule="evenodd"/><path d="M120.717,213.3l2.067-1.2a.76.76,0,0,1,.1-.06h0a.786.786,0,0,1,.743.028l8.33,4.809a1.931,1.931,0,0,1,.965,1.671v9.619a.786.786,0,0,1-.357.664h0a.79.79,0,0,1-.08.046l-2.065,1.2-.181-2.077-6.841-3.949a1.93,1.93,0,0,1-.964-1.671V215.3c-.515.252-.936.448-.936.448Z" fill="#9dcbf7"/><path d="M129.921,218.056l-8.33-4.81a.8.8,0,0,0-1.194.689v9.619a1.931,1.931,0,0,0,.965,1.671l8.33,4.81a.8.8,0,0,0,1.194-.689v-9.619A1.928,1.928,0,0,0,129.921,218.056Z" fill="#c4dffa"/><path d="M126.634,219.534a.675.675,0,0,0,.183.57c.149.136.306.108.356-.063l.086-.317a.639.639,0,0,0-.183-.57c-.149-.14-.308-.111-.355.063Zm.968,1.356c-.151-.028-.246.123-.215.342a.588.588,0,0,0,.337.461l.276.059c.153.033.249-.12.216-.342a.556.556,0,0,0-.338-.46Zm-2-1.2c.105.207.283.309.4.228s.124-.316.019-.524l-.19-.376c-.108-.2-.281-.3-.4-.228h0c-.114.082-.122.316-.017.523Zm1.711,3.387c.105.206.282.307.4.225a.465.465,0,0,0,.019-.524l-.19-.376h0c-.105-.208-.283-.31-.4-.228s-.124.316-.019.524l.19.376Zm-3.7-2.56c-.1-.008-.178.078-.188.219a.686.686,0,0,0,.142.438l.756.958-.887.629c-.115.082-.123.316-.018.524s.283.31.4.228l.887-.629.355,1.242a.6.6,0,0,0,.258.356.167.167,0,0,0,.252-.093l1.258-3.05a.465.465,0,0,0,.01-.294c-.055-.222-.217-.4-.362-.4Z" fill="#fff" fill-rule="evenodd"/></svg>