<?xml version="1.0" encoding="UTF-8"?> <svg xmlns="http://www.w3.org/2000/svg" xmlns:xlink="http://www.w3.org/1999/xlink" width="200px" height="183px" viewBox="0 0 200 183" version="1.1"><title>E1D255D8-61C3-4C8A-A7EB-9233AE0B29F7</title><g id="Page-1" stroke="none" stroke-width="1" fill="none" fill-rule="evenodd"><g id="Web-developent-services_new" transform="translate(-317.000000, -3069.000000)"><g id="Website-Design" transform="translate(319.000000, 3071.000000)"><polygon id="Path-12" fill="#D8D8D8" points="73.255814 131.906977 83.7209302 131.906977 81.627907 158.069767 71.1627907 158.069767"></polygon><g id="Customer-satisf-icon" transform="translate(0.000000, 0.046512)" stroke-width="3"><path d="M195.862444,26.9257793 L195.862444,120.270163 C195.862444,123.101195 194.737821,125.816275 192.73598,127.818117 C190.734138,129.819959 188.019058,130.944582 185.188026,130.944582 L10.7634834,130.944582 C7.93245159,130.944582 5.21737145,129.819959 3.21552964,127.818117 C1.21368784,125.816275 0.0890648194,123.101195 0.0890648194,120.270163 L0.0890648194,11.2548243 C0.0890648194,5.35950574 4.86816482,0.58040574 10.7634834,0.58040574 L185.815246,0.0314296648 C191.338066,0.0141096664 195.829237,4.47719952 195.846557,10.0000199 C195.84658,10.0073494 195.846595,10.0146789 195.846602,10.0220084 L195.862444,26.9257793 L195.862444,26.9257793 Z" id="Path" stroke="#37474F" stroke-linecap="round"></path><line x1="0.0890648194" y1="105.507669" x2="195.862444" y2="105.507669" id="Path" stroke="#37474F"></line><line x1="72.9930727" y1="130.944582" x2="70.9490351" y2="158.425532" id="Path" stroke="#37474F"></line><line x1="122.277091" y1="130.944582" x2="124.321128" y2="158.425532" id="Path" stroke="#37474F"></line><rect id="Rectangle" stroke="#37474F" fill="#00C8FF" x="53.4611578" y="158.425532" width="88.5749629" height="19.2593765" rx="4"></rect><line x1="85.8139535" y1="117.54478" x2="108.525482" y2="117.54478" id="Path" stroke="#00C8FF" stroke-linecap="round"></line><path d="M8,105.953488 L8,9.95348837 C8,8.84891887 8.8954305,7.95348837 10,7.95348837 L186,7.95348837 C187.104569,7.95348837 188,8.84891887 188,9.95348837 L188,105.953488 L188,105.953488" id="Path-13" stroke="#37474F"></path></g><g id="Group-8" transform="translate(48.139535, 14.558140)"><rect id="Rectangle" fill="#00C8FF" x="26.1627907" y="2.09302326" width="8.37209302" height="7.3255814"></rect><circle id="Oval" fill="#00C8FF" cx="5.75581395" cy="5.75581395" r="3.6627907"></circle><circle id="Oval" fill="#00C8FF" cx="54.9418605" cy="5.75581395" r="3.6627907"></circle><path d="M16.0492919,20.8952916 C16.0351625,15.3476956 19.3370926,10.3119587 24.475426,8.04468818 L24.475426,10.3686492 C24.475426,10.9656204 24.9665529,11.4495612 25.5723885,11.4495612 L34.9980383,11.4495612 C35.6038739,11.4495612 36.0950007,10.9656204 36.0950007,10.3686492 L36.0950007,7.98956167 C41.3059084,10.2223816 44.6684109,15.2967409 44.6472856,20.8958321 C44.6472856,21.4928034 45.1384124,21.9767442 45.744248,21.9767442 C46.3500837,21.9767442 46.8412105,21.4928034 46.8412105,20.8958321 C46.8518515,17.3893236 45.7015333,13.975074 43.5647665,11.1710462 C42.2122528,9.39725281 40.508706,7.91217265 38.5571329,6.80560263 L49.4093824,6.80560263 C49.9780213,9.39381043 52.3102503,11.2347151 54.9976747,11.2166247 C58.140655,11.2166247 60.6976744,8.7530459 60.6976744,5.72469055 C60.6976744,2.69633519 58.140655,0.232756402 54.9976747,0.232756402 C52.3102748,0.214735377 49.9780847,2.05560935 49.4093824,4.64377846 L36.0950007,4.64377846 L36.0950007,1.08091208 C36.0950007,0.483940824 35.6038739,1.17239551e-13 34.9980383,1.17239551e-13 L25.5723885,1.17239551e-13 C24.9665529,1.17239551e-13 24.475426,0.483940824 24.475426,1.08091208 L24.475426,4.64377846 L11.0412927,4.64377846 C10.539798,2.06256041 8.27914122,0.10827136 5.57330052,0.10827136 C2.50016024,0.10827136 3.55271368e-14,2.62787743 3.55271368e-14,5.72469055 C3.55271368e-14,8.82150367 2.4992461,11.3403891 5.57330052,11.3403891 C8.27914122,11.3403891 10.5407121,9.38628023 11.0422068,6.80488202 L22.116774,6.80488202 C16.9946816,9.6988324 13.8411809,15.0773493 13.855367,20.8952916 C13.855367,21.4922629 14.3464938,21.9762037 14.9523294,21.9762037 C15.558165,21.9762037 16.0492919,21.4922629 16.0492919,20.8952916 L16.0492919,20.8952916 Z M54.9976747,2.39458057 C56.9308882,2.39458057 58.5037495,3.88858122 58.5037495,5.72469055 C58.5037495,7.56079987 56.9314367,9.05480053 54.9976747,9.05480053 C53.0639128,9.05480053 51.4917828,7.56098003 51.4917828,5.72469055 C51.4917828,3.88840107 53.0646441,2.39458057 54.9976747,2.39458057 Z M33.9010758,2.16182417 L33.9010758,6.02680548 C33.8935799,6.04626189 33.8855355,6.06535801 33.8789538,6.08553503 C33.8062573,6.31556361 33.8140477,6.56298236 33.9010758,6.78812789 L33.9010758,9.28773708 L26.6693509,9.28773708 L26.6693509,6.80596294 C26.7492021,6.58400571 26.7528634,6.34234969 26.6797721,6.11814255 C26.676664,6.10895479 26.672459,6.10012735 26.6693509,6.09111974 L26.6693509,2.16182417 L33.9010758,2.16182417 Z M5.57330052,9.17856496 C3.70992698,9.17856496 2.19392489,7.62925764 2.19392489,5.72396994 C2.19392489,3.81868224 3.70846437,2.27009553 5.57330052,2.27009553 C7.43813668,2.27009553 8.95304181,3.81940285 8.95304181,5.72469055 C8.95304181,7.62997825 7.43594275,9.17856496 5.57330052,9.17856496 Z" id="Shape" fill="#37474F" fill-rule="nonzero"></path><polygon id="Path-5" fill="#FFD740" points="36.627907 61.744186 26.1627907 61.744186 24.0697674 61.744186 24.0697674 52.3255814 26.1627907 50.2325581 26.1627907 47.0930233 20.9302326 36.627907 30.3488372 20.9302326 41.8604651 36.627907 35.5813953 50.2325581 36.627907 51.2790698"></polygon><circle id="Oval" fill="#FFFFFF" cx="30.872093" cy="37.1511628" r="2.61627907"></circle><path d="M16.9752615,25.8108844 C16.7444008,25.2592078 16.0538895,24.9782625 15.4329614,25.1833756 C14.8120333,25.3884886 14.4958212,26.0019879 14.7266819,26.5536646 C15.2153769,27.7206701 15.8558281,28.8329638 16.6350159,29.8679346 C16.8715034,30.188033 17.2830947,30.3708064 17.713203,30.3467198 C18.1433112,30.3226333 18.5258147,30.0953897 18.7151927,29.7514423 C18.9045706,29.407495 18.8717095,28.9997197 18.6291111,28.6832518 C17.9538811,27.7862481 17.3988402,26.8222659 16.9752615,25.8108844 L16.9752615,25.8108844 Z" id="Path" fill="#37474F" fill-rule="nonzero"></path><path d="M43.571283,25.8593063 C43.1974104,26.875684 42.6814251,27.8522744 42.0338563,28.7691494 C41.8054709,29.0926847 41.8025142,29.4927127 42.0260998,29.8185467 C42.2496853,30.1443807 42.6658453,30.3465187 43.1178161,30.3488372 C43.569787,30.3511161 43.9889037,30.1532261 44.217289,29.8296908 C44.964542,28.7716143 45.559989,27.644648 45.9914863,26.471776 C46.123305,26.1131567 46.0144664,25.723444 45.705969,25.4494391 C45.3974716,25.1754341 44.9361835,25.0587647 44.4958674,25.1433791 C44.0555513,25.2279935 43.7031017,25.5010368 43.571283,25.8596561 L43.571283,25.8593063 Z" id="Path" fill="#37474F" fill-rule="nonzero"></path><path d="M66.9767442,61.744186 L74.3023256,61.744186 C78.4883721,60.3488372 80.9302326,57.9069767 81.627907,54.4186047 C82.3255814,50.9302326 82.3255814,44.6511628 81.627907,35.5813953 C80.9302326,32.7906977 78.4883721,30.6976744 74.3023256,29.3023256 C70.1162791,27.9069767 65.5813953,29.3023256 60.6976744,33.4883721 C60,34.1860465 59.6511628,36.2790698 59.6511628,39.7674419 C59.6511628,43.255814 59.6511628,48.8372093 59.6511628,56.5116279 L62.7906977,59.6511628 L66.9767442,61.744186 Z" id="Path-11" fill="#D8D8D8"></path><path d="M73.5073717,28.398268 L67.5684361,28.398268 C62.5080658,28.4040998 58.4073094,32.5003856 58.4015719,37.5551385 L58.4015719,53.4675887 C58.4072089,58.5225848 62.5081877,62.6190926 67.5688015,62.6248241 L69.4425051,62.6248241 L69.4425051,76.4571046 C69.4225246,80.4242079 66.1973493,83.629636 62.2257869,83.629636 C58.2542245,83.629636 55.0290492,80.4242079 55.0090687,76.4571046 L55.0090687,69.8662817 C55.0090688,67.0545308 53.5073505,64.4563659 51.0695967,63.0504904 C48.6318429,61.644615 45.6284063,61.644615 43.1906525,63.0504904 C40.7528987,64.4563659 39.2511804,67.0545308 39.2511805,69.8662817 L39.2511805,72.4224766 C39.2511805,74.4569649 37.600069,76.1062436 35.5633196,76.1062436 C33.5265703,76.1062436 31.8754587,74.4569649 31.8754587,72.4224766 L31.8754587,63.4807206 L37.0391946,63.4482436 C37.3298596,63.4464106 37.6078901,63.3293116 37.8121195,63.1227084 C38.016349,62.9161052 38.1300471,62.6369224 38.1282004,62.3465802 L38.1050029,58.6473045 L38.0584251,51.2451041 C38.0553897,50.6680865 37.6035195,50.1929828 37.0267739,50.1604089 L37.0185543,48.8742834 L42.460478,36.8999425 C42.6113989,36.5674816 42.5866751,36.1817804 42.3945386,35.871261 C40.510055,32.8290469 39.5550112,31.2872719 39.5294072,31.2459359 C37.7487286,28.371154 35.0777107,24.0589811 31.5163535,18.3094173 C31.3166826,17.9870709 30.9642808,17.7906977 30.5847987,17.7906977 L30.5778577,17.7906977 C30.1960437,17.7933308 29.8431236,17.994272 29.6463029,18.3210944 L18.9876725,36.0181373 C18.7993431,36.3309382 18.7794778,36.716923 18.9347018,37.0473661 L24.5262222,48.9523742 L24.5344418,50.2386821 C23.958623,50.2797115 23.5133912,50.7598812 23.5164899,51.336514 L23.5869958,62.4372603 C23.5908121,63.0391537 24.0803682,63.5250693 24.6829426,63.5250572 L24.6898836,63.5250572 L29.6830172,63.4936749 L29.6830172,72.4217468 C29.6830172,75.6654407 32.3154729,78.2949741 35.5627716,78.2949741 C38.8100704,78.2949741 41.4425261,75.6654407 41.4425261,72.4217468 L41.4425261,69.8655518 C41.4425261,66.7281673 43.9887054,64.1848146 47.1295766,64.1848146 C50.2704479,64.1848146 52.8166271,66.7281673 52.8166271,69.8655518 L52.8166271,76.4571046 C52.8394511,81.6314051 57.0451378,85.8139535 62.2252389,85.8139535 C67.4053401,85.8139535 71.6110267,81.6314051 71.6338507,76.4571046 L71.6338507,62.6248241 L73.5073717,62.6248241 C78.5679142,62.6189921 82.6687818,58.5225137 82.6744186,53.4675887 L82.6744186,37.5551385 C82.668681,32.5003144 78.5678134,28.4039993 73.5073717,28.398268 Z M26.7245088,49.793127 L34.8317751,49.742222 L34.834515,50.1708089 L26.727066,50.2217138 L26.7245088,49.793127 Z M25.7160551,52.4173776 L35.8731072,52.3537008 L35.8826054,53.8649758 L25.7255533,53.9286526 L25.7160551,52.4173776 Z M25.7392527,56.1181129 L35.8963048,56.0544361 L35.9059856,57.5655287 L25.7489335,57.629023 L25.7392527,56.1181129 Z M30.7117459,39.2080095 L30.6980465,39.2080095 C29.493449,39.2117773 28.5138631,38.2394054 28.5100691,37.0361452 C28.5062971,35.8328849 29.4797497,34.8543864 30.6843472,34.8505966 L30.6980465,34.8505966 C31.9026441,34.8468288 32.88223,35.8192007 32.8860239,37.022461 C32.8897959,38.2257213 31.9163434,39.2042198 30.7117459,39.2080095 L30.7117459,39.2080095 Z M29.5125974,22.7886882 L29.5756144,32.8054692 C27.4528286,33.3688876 26.0776224,35.4175485 26.3618095,37.5931122 C26.6459966,39.7686759 28.50142,41.3962662 30.6978639,41.3967291 L30.7256279,41.3967291 C32.9271041,41.3826649 34.7748761,39.736046 35.0390684,37.5528606 C35.3032607,35.3696751 33.9014915,33.3306945 31.7667773,32.7930623 L31.7037604,22.7746392 L40.2216414,36.5260921 L35.211886,47.5496599 L26.3151727,47.6054912 L21.1676933,36.6456002 L29.5125974,22.7886882 Z M25.7626329,59.8184833 L35.919685,59.754989 L35.9291832,61.2658991 L25.7721311,61.3297583 L25.7626329,59.8184833 Z M67.5684361,60.4355462 C63.717859,60.4310211 60.5975923,57.3138917 60.5934655,53.4675887 L60.5934655,51.9442717 L69.4425051,51.9442717 L69.4425051,60.4353638 L67.5684361,60.4355462 Z M73.5077371,60.4355462 L71.6340334,60.4355462 L71.6340334,51.9442717 L80.4828904,51.9442717 L80.4828904,53.4675887 C80.4786623,57.3140339 77.3580916,60.4311404 73.5073717,60.4353638 L73.5077371,60.4355462 Z M80.4828904,49.7549939 L60.5934655,49.7549939 L60.5934655,37.5551385 C60.5978946,33.708907 63.7182953,30.5920518 67.5688015,30.5877284 L73.5073717,30.5877284 C77.3578065,30.5921524 80.4780961,33.7089781 80.482525,37.5551385 L80.4828904,49.7549939 Z" id="Shape" fill="#37474F" fill-rule="nonzero"></path></g></g></g></g></svg> 